<svg xmlns="http://www.w3.org/2000/svg" width="1200" height="630" viewBox="0 0 1200 630" role="img" aria-labelledby="title desc">
  <title id="title">MetaTCG</title>
  <desc id="desc">Pokémon TCG meta data and deck price social card</desc>
  <defs>
    <linearGradient id="bg" x1="0" y1="0" x2="1" y2="1">
      <stop offset="0" stop-color="#102117"/>
      <stop offset=".62" stop-color="#07110c"/>
      <stop offset="1" stop-color="#0b1911"/>
    </linearGradient>
    <linearGradient id="accent" x1="0" y1="0" x2="1" y2="1">
      <stop stop-color="#d6ff70"/>
      <stop offset="1" stop-color="#72dc42"/>
    </linearGradient>
    <radialGradient id="glow" cx="0" cy="0" r="1" gradientTransform="translate(1010 130) rotate(135) scale(520 440)">
      <stop stop-color="#b8f34a" stop-opacity=".16"/>
      <stop offset="1" stop-color="#b8f34a" stop-opacity="0"/>
    </radialGradient>
    <pattern id="grid" width="48" height="48" patternUnits="userSpaceOnUse">
      <path d="M48 0H0V48" fill="none" stroke="#b8f34a" stroke-opacity=".045"/>
    </pattern>
  </defs>
  <rect width="1200" height="630" fill="url(#bg)"/>
  <rect width="1200" height="630" fill="url(#glow)"/>
  <rect width="1200" height="630" fill="url(#grid)"/>
  <g transform="translate(88 76)">
    <path d="M0 0h64l18 18v64H18L0 64Z" fill="#b8f34a"/>
    <text x="41" y="57" text-anchor="middle" fill="#172006" font-family="Arial, sans-serif" font-size="43" font-weight="900">M</text>
    <text x="105" y="35" fill="#eef7f0" font-family="Arial, sans-serif" font-size="31" font-weight="800" letter-spacing="-1">Meta</text>
    <text x="176" y="35" fill="#b8f34a" font-family="Arial, sans-serif" font-size="31" font-weight="800" letter-spacing="-1">TCG</text>
    <text x="106" y="60" fill="#688073" font-family="Arial, sans-serif" font-size="11" font-weight="700" letter-spacing="5">POKÉMON TCG DATA</text>
  </g>
  <g transform="translate(88 244)">
    <text fill="#eef7f0" font-family="Arial, sans-serif" font-size="72" font-weight="800" letter-spacing="-4">Pokémon TCG</text>
    <text y="90" fill="url(#accent)" font-family="Arial, sans-serif" font-size="72" font-weight="800" letter-spacing="-4">Meta Overview</text>
    <text y="154" fill="#a2b9a8" font-family="Arial, sans-serif" font-size="24">DECK TIERS · META SHARE · MATCHUPS · PRICE ESTIMATES</text>
  </g>
  <g transform="translate(930 250)">
    <path d="M0 0h155l35 35v155H35L0 155Z" fill="#0d1b13" stroke="#284733" stroke-width="2"/>
    <path d="M42 142V48h24l36 45 36-45h24v94h-28V90l-32 40-32-40v52Z" fill="url(#accent)"/>
    <circle cx="158" cy="32" r="7" fill="#d6ff70"/>
  </g>
  <rect x="88" y="567" width="1024" height="1" fill="#b8f34a" opacity=".18"/>
  <text x="88" y="601" fill="#688073" font-family="Arial, sans-serif" font-size="14" letter-spacing="2">PUBLIC REPLAY INTELLIGENCE · METATCG.VERCEL.APP</text>
</svg>
